<?xml version="1.0" encoding="utf-8"?>
<!-- Generator: Adobe Illustrator 21.0.2, SVG Export Plug-In . SVG Version: 6.00 Build 0)  -->
<svg version="1.1" id="Layer_1" xmlns="http://www.w3.org/2000/svg" xmlns:xlink="http://www.w3.org/1999/xlink" x="0px" y="0px"
	 width="130.9px" height="132.4px" viewBox="0 0 130.9 132.4" style="enable-background:new 0 0 130.9 132.4;" xml:space="preserve"
	>
<style type="text/css">
	.st0{fill:#667CBA;}
</style>
<path class="st0" d="M59.6,122.4C26.7,122.4,0,94.9,0,61.2S26.7,0,59.6,0c32.8,0,59.6,27.5,59.6,61.2S92.4,122.4,59.6,122.4z
	 M59.6,4C28.9,4,4,29.7,4,61.2c0,31.5,24.9,57.2,55.6,57.2s55.6-25.7,55.6-57.2C115.1,29.7,90.2,4,59.6,4z"/>
<path class="st0" d="M59.6,121.4C27.3,121.4,1,94.4,1,61.2C1,28,27.3,1,59.6,1s58.6,27,58.6,60.2C118.1,94.4,91.9,121.4,59.6,121.4z
	 M59.6,3C28.4,3,3,29.1,3,61.2s25.4,58.2,56.6,58.2c31.2,0,56.6-26.1,56.6-58.2S90.8,3,59.6,3z"/>
<ellipse id="Ellipse_12" class="st0" cx="59.6" cy="61.2" rx="31.9" ry="32.7"/>
<ellipse id="Ellipse_13" class="st0" cx="119.9" cy="70" rx="11" ry="11"/>
<ellipse id="Ellipse_13_1_" class="st0" cx="64.7" cy="121.4" rx="11" ry="11"/>
<ellipse id="Ellipse_15" class="st0" cx="23.8" cy="11.5" rx="8.5" ry="8.5"/>
</svg>
